<svg xmlns="http://www.w3.org/2000/svg" xmlns:xlink="http://www.w3.org/1999/xlink" version="1.1" x="0px" y="0px" viewBox="0 0 100 125" enable-background="new 0 0 100 100" xml:space="preserve">
	<g>
		<g>
			<path d="M50,85.4c-19.5,0-35.4-15.9-35.4-35.4S30.5,14.6,50,14.6S85.4,30.5,85.4,50S69.5,85.4,50,85.4z M50,19.6    c-16.7,0-30.4,13.6-30.4,30.4S33.3,80.4,50,80.4S80.4,66.7,80.4,50S66.7,19.6,50,19.6z"/>
		</g>
		<g>
			<path d="M50,70.5c-10.3,0-16.3-8.1-16.5-8.4c-0.8-1.1-0.6-2.7,0.6-3.5c1.1-0.8,2.7-0.6,3.5,0.6c0.1,0.1,4.8,6.3,12.5,6.3    c7.7,0,12.4-6.3,12.5-6.3c0.8-1.1,2.4-1.4,3.5-0.5c1.1,0.8,1.4,2.4,0.6,3.5C66.3,62.5,60.3,70.5,50,70.5z"/>
		</g>
		<circle cx="62.3" cy="42" r="4.2"/>
		<g>
			<path d="M33.5,44.5c-0.8,0-1.7-0.4-2.1-1.2c-0.7-1.2-0.3-2.7,0.9-3.4c0.2-0.1,2.2-1.3,5.6-1.3c3.4,0,5.4,1.2,5.6,1.3    c1.2,0.7,1.6,2.3,0.8,3.4c-0.7,1.2-2.3,1.6-3.4,0.8l0,0c0,0-1.1-0.6-3-0.6c-2,0-3,0.6-3.1,0.6C34.3,44.4,33.9,44.5,33.5,44.5z"/>
		</g>
	</g>
</svg>