<svg xmlns="http://www.w3.org/2000/svg" version="1.1" data-icon="grid-two-up" data-container-transform="translate(0 ) scale(1 1 )" viewBox="0 0 128 160" x="0px" y="0px"><path d="M1.5 0c-.8 0-1.5.7-1.5 1.5v55c0 .8.7 1.5 1.5 1.5h55c.8 0 1.5-.7 1.5-1.5v-55c0-.8-.7-1.5-1.5-1.5h-55zm70 0c-.8 0-1.5.7-1.5 1.5v55c0 .8.7 1.5 1.5 1.5h55c.8 0 1.5-.7 1.5-1.5v-55c0-.8-.7-1.5-1.5-1.5h-55zm-70 70c-.8 0-1.5.7-1.5 1.5v55c0 .8.7 1.5 1.5 1.5h55c.8 0 1.5-.7 1.5-1.5v-55c0-.8-.7-1.5-1.5-1.5h-55zm70 0c-.8 0-1.5.7-1.5 1.5v55c0 .8.7 1.5 1.5 1.5h55c.8 0 1.5-.7 1.5-1.5v-55c0-.8-.7-1.5-1.5-1.5h-55z"/><text x="0" y="143" fill="#000000" font-size="5px" font-weight="bold" font-family="'Helvetica Neue', Helvetica, Arial-Unicode, Arial, Sans-serif">Created by useiconic.com</text><text x="0" y="148" fill="#000000" font-size="5px" font-weight="bold" font-family="'Helvetica Neue', Helvetica, Arial-Unicode, Arial, Sans-serif">from the Noun Project</text></svg>